# xmcd CD database file
#
# Track frame offsets:
#	150
#	17552
#	33930
#	50242
#	65347
#	85610
#	109567
#	125627
#	149745
#	172307
#	192550
#	211960
#	231865
#	248182
#	265565
#	280982
#	295650
#	310317
#	324982
#
# Disc length: 4533 seconds
#
# Revision: 83192082
# Processed by: cddbd v1.5.2PL0 Copyright (c) Steve Scherf et al.
# Submitted via: jetAudio 5
#
DISCID=1e11b313
DTITLE=R. Kelly - TP.3 Reloaded
DYEAR=2005
DGENRE=R&B
TTITLE0=Playa's Only (Featuring The Game)
TTITLE1=Happy Summertime (Featuring Snoop Dogg)
TTITLE2=In the Kitchen
TTITLE3=Slow Wind
TTITLE4=Put My T-Shirt On
TTITLE5=Remote Control
TTITLE6=Kickin' It with Your Girlfriend
TTITLE7=Reggae Bump Bump (Featuring Elephant Man)
TTITLE8=Touchin' (Featuring Nivea)
TTITLE9=Girls Go Crazy (Featuring Baby)
TTITLE10=Hit It Til the Mornin' (Featuring Twista and Do Or Die)
TTITLE11=Sex Weed
TTITLE12=(Sex) Love Is What We Makin'
TTITLE13=Burn It Up (Featuring Wisin and Yandell)
TTITLE14=Trapped In The Closet Chapter 1
TTITLE15=Trapped In The Closet Chapter 2
TTITLE16=Trapped In The Closet Chapter 3
TTITLE17=Trapped In The Closet Chapter 4
TTITLE18=Trapped In The Closet Chapter 5
EXTD=
EXTT0=
EXTT1=
EXTT2=
EXTT3=
EXTT4=
EXTT5=
EXTT6=
EXTT7=
EXTT8=
EXTT9=
EXTT10=
EXTT11=
EXTT12=
EXTT13=
EXTT14=
EXTT15=
EXTT16=
EXTT17=
EXTT18=
PLAYORDER=
